<svg width="1920" height="795" viewBox="0 0 1920 795" fill="none" xmlns="http://www.w3.org/2000/svg">
<path fill-rule="evenodd" clip-rule="evenodd" d="M870.857 356.599C847.029 374.017 824.796 398.257 803.107 433.115C781.34 468.099 765.404 492.714 744.781 511.228C724.089 529.804 698.806 542.136 658.517 552.932C638.071 558.41 617.915 557.455 597.523 553.723C582.733 551.016 567.7 546.821 552.322 542.53C546.561 540.923 540.753 539.302 534.89 537.74C491.757 526.253 444.957 517.76 389.237 539.859C276.936 584.399 92.0047 707.212 33.4391 938.491C33.168 939.562 32.0801 940.21 31.0093 939.939C29.9386 939.668 29.2904 938.58 29.5615 937.509C88.5543 704.543 274.766 580.957 387.762 536.141C444.691 513.562 492.524 522.318 535.92 533.875C541.893 535.466 547.768 537.105 553.565 538.723C568.878 542.996 583.646 547.117 598.243 549.788C618.302 553.459 637.811 554.339 657.482 549.068C697.428 538.365 722.054 526.256 742.109 508.251C762.235 490.183 777.886 466.078 799.711 431.002C821.613 395.802 844.176 371.149 868.496 353.37C892.819 335.59 918.812 324.75 947.482 317.068C976.402 309.319 1014.01 310.584 1051.36 319.835C1088.72 329.09 1126.02 346.388 1154.31 370.921C1209.58 418.857 1291.75 418.015 1358.7 408.022C1374.89 405.606 1390.23 396.089 1405.63 382.724C1418.45 371.593 1431.15 357.955 1444.3 343.818C1446.95 340.979 1449.61 338.12 1452.29 335.257C1484.21 301.216 1519.45 266.596 1564.8 262.01C1587.64 259.7 1607.6 267.069 1626 278.843C1642.88 289.649 1658.57 304.264 1674.04 318.661C1675.38 319.908 1676.72 321.153 1678.05 322.394C1711.86 353.786 1744.78 382.198 1788.43 370.501C1810.43 364.606 1832.95 349.122 1857.85 329.744C1864.39 324.659 1871.08 319.309 1877.96 313.81C1897.19 298.449 1917.87 281.927 1940.57 266.765C2002.38 225.491 2079.62 193.998 2185.85 221.507C2186.92 221.784 2187.56 222.875 2187.28 223.944C2187 225.013 2185.91 225.656 2184.84 225.379C2080.07 198.245 2003.99 229.221 1942.79 270.091C1920.24 285.15 1899.77 301.511 1880.58 316.843C1873.67 322.366 1866.92 327.755 1860.31 332.901C1835.44 352.252 1812.35 368.235 1789.47 374.364C1743.37 386.717 1708.81 356.412 1675.33 325.325C1674.01 324.096 1672.69 322.865 1671.36 321.635C1655.84 307.182 1640.4 292.813 1623.84 282.212C1605.92 270.742 1586.86 263.8 1565.2 265.99C1521.55 270.403 1487.29 303.784 1455.21 337.993C1452.55 340.827 1449.91 343.667 1447.28 346.495C1434.12 360.632 1421.25 374.461 1408.25 385.745C1392.65 399.285 1376.61 409.394 1359.3 411.978C1292.25 421.985 1208.42 423.143 1151.69 373.943C1123.98 349.909 1087.28 332.855 1050.39 323.717C1013.49 314.575 976.597 313.408 948.518 320.932C920.188 328.523 894.681 339.183 870.857 356.599Z" fill="url(#paint0_linear)"/>
<defs>
<linearGradient id="paint0_linear" x1="185.577" y1="1008.59" x2="1997.65" y2="523.048" gradientUnits="userSpaceOnUse">
<stop stop-color="#FF59F8"/>
<stop offset="0.197917" stop-color="#AE72FF"/>
<stop offset="0.40625" stop-color="#90E9ED"/>
<stop offset="0.619792" stop-color="#5CD167"/>
<stop offset="0.825321" stop-color="#FFEE00"/>
</linearGradient>
</defs>
</svg>
