<svg width="133" height="128" viewBox="0 0 133 128" fill="none" xmlns="http://www.w3.org/2000/svg">
<path d="M0 41C0 24.4315 13.4315 11 30 11H44C60.5685 11 74 24.4315 74 41V55C74 71.5685 60.5685 85 44 85H5C2.23858 85 0 82.7614 0 80V41Z" fill="url(#paint0_linear)"/>
<g filter="url(#filter0_i)">
<path d="M45.1124 55.8H29.5124L26.5364 63H18.5684L33.5444 29.4H41.2244L56.2484 63H48.0884L45.1124 55.8ZM42.6644 49.896L37.3364 37.032L32.0084 49.896H42.6644Z" fill="white"/>
</g>
<path d="M59 66C59 49.4315 72.4315 36 89 36H103C119.569 36 133 49.4315 133 66V105C133 107.761 130.761 110 128 110H89C72.4315 110 59 96.5685 59 80V66Z" fill="url(#paint1_linear)"/>
<g filter="url(#filter1_i)">
<path d="M106.656 72.528C108.576 73.136 110.08 74.16 111.168 75.6C112.256 77.008 112.8 78.752 112.8 80.832C112.8 83.776 111.648 86.048 109.344 87.648C107.072 89.216 103.744 90 99.3604 90H81.9844V56.4H98.4004C102.496 56.4 105.632 57.184 107.808 58.752C110.016 60.32 111.12 62.448 111.12 65.136C111.12 66.768 110.72 68.224 109.92 69.504C109.152 70.784 108.064 71.792 106.656 72.528ZM89.7124 62.256V70.176H97.4404C99.3604 70.176 100.816 69.84 101.808 69.168C102.8 68.496 103.296 67.504 103.296 66.192C103.296 64.88 102.8 63.904 101.808 63.264C100.816 62.592 99.3604 62.256 97.4404 62.256H89.7124ZM98.7844 84.144C100.832 84.144 102.368 83.808 103.392 83.136C104.448 82.464 104.976 81.424 104.976 80.016C104.976 77.232 102.912 75.84 98.7844 75.84H89.7124V84.144H98.7844Z" fill="white"/>
</g>
<path d="M88.155 7.30194C94.3166 9.27069 98.2409 13.398 100.295 19.3405L100.292 19.3326L106.243 17.4643L100.37 30.5183L88.0556 23.1443L93.3992 21.4666C92.7071 19.4048 91.5646 17.6913 89.8837 16.345C87.5361 14.4583 84.819 13.6053 81.7302 13.9504C80.9159 14.038 80.1051 14.2797 79.3074 14.4913C78.6087 14.6762 77.9191 14.9186 77.2139 15.14L75.0223 8.15945C79.3589 6.44037 83.73 5.8866 88.155 7.30194Z" fill="white"/>
<path d="M49.9951 117.012C43.3799 116.768 38.1978 113.717 34.2105 108.307L34.2155 108.314L29.0976 111.879L30.3691 97.0602L44.7493 101.013L40.1537 104.215C41.5174 106.098 43.1987 107.502 45.2762 108.384C48.1799 109.623 51.0919 109.714 53.959 108.494C54.7159 108.175 55.4175 107.702 56.1167 107.264C56.7292 106.88 57.3136 106.441 57.92 106.018L62.3905 112.436C58.7816 115.394 54.7464 117.188 49.9951 117.012Z" fill="white"/>
<defs>
<filter id="filter0_i" x="18.5684" y="29.4" width="37.68" height="37.6" filterUnits="userSpaceOnUse" color-interpolation-filters="sRGB">
<feFlood flood-opacity="0" result="BackgroundImageFix"/>
<feBlend mode="normal" in="SourceGraphic" in2="BackgroundImageFix" result="shape"/>
<feColorMatrix in="SourceAlpha" type="matrix" values="0 0 0 0 0 0 0 0 0 0 0 0 0 0 0 0 0 0 127 0" result="hardAlpha"/>
<feOffset dy="4"/>
<feGaussianBlur stdDeviation="2"/>
<feComposite in2="hardAlpha" operator="arithmetic" k2="-1" k3="1"/>
<feColorMatrix type="matrix" values="0 0 0 0 0 0 0 0 0 0 0 0 0 0 0 0 0 0 0.25 0"/>
<feBlend mode="normal" in2="shape" result="effect1_innerShadow"/>
</filter>
<filter id="filter1_i" x="81.9844" y="56.4" width="30.816" height="37.6" filterUnits="userSpaceOnUse" color-interpolation-filters="sRGB">
<feFlood flood-opacity="0" result="BackgroundImageFix"/>
<feBlend mode="normal" in="SourceGraphic" in2="BackgroundImageFix" result="shape"/>
<feColorMatrix in="SourceAlpha" type="matrix" values="0 0 0 0 0 0 0 0 0 0 0 0 0 0 0 0 0 0 127 0" result="hardAlpha"/>
<feOffset dy="4"/>
<feGaussianBlur stdDeviation="2"/>
<feComposite in2="hardAlpha" operator="arithmetic" k2="-1" k3="1"/>
<feColorMatrix type="matrix" values="0 0 0 0 0 0 0 0 0 0 0 0 0 0 0 0 0 0 0.25 0"/>
<feBlend mode="normal" in2="shape" result="effect1_innerShadow"/>
</filter>
<linearGradient id="paint0_linear" x1="0" y1="47.9541" x2="95.5007" y2="47.9541" gradientUnits="userSpaceOnUse">
<stop stop-color="#790FE5"/>
<stop offset="1" stop-color="#EB4B87"/>
</linearGradient>
<linearGradient id="paint1_linear" x1="133.622" y1="70.5333" x2="59" y2="70.5333" gradientUnits="userSpaceOnUse">
<stop stop-color="#023AFF"/>
<stop offset="1" stop-color="#56FCDE"/>
</linearGradient>
</defs>
</svg>
