<svg width="505" height="385" viewBox="0 0 505 385" fill="none" xmlns="http://www.w3.org/2000/svg">
<g filter="url(#filter0_i)">
<path d="M284.463 53.1638C288.817 54.1544 291.831 57.7868 291.831 62.4097V117.555C291.831 153.217 262.36 182.276 226.191 182.276H223.512C222.842 182.276 222.172 182.276 221.503 181.946C187.678 179.304 160.886 151.566 160.886 117.555C160.886 52.8336 214.47 0 280.11 0H226.526C160.886 0 107.303 52.8336 107.303 117.555C107.303 178.974 155.528 229.826 216.814 234.449C217.819 234.449 218.489 234.449 219.493 234.779C220.163 234.779 220.833 234.779 221.503 234.779C223.177 234.779 224.852 234.779 226.526 234.779C292.166 234.779 345.415 182.276 345.75 117.555C345.415 83.2129 318.288 55.1451 284.463 53.1638Z" fill="url(#paint0_linear)"/>
<path d="M289.154 0.330092C288.485 0.330092 287.815 0.330092 287.145 0.330092C286.14 0.330092 285.47 0.330092 284.466 0.330092C282.791 0.330092 281.117 0.330092 279.777 0.330092C214.472 -0.000118285 160.889 52.8335 160.889 117.555C160.889 151.566 187.68 179.634 221.84 181.946C217.821 180.955 214.472 177.323 214.472 173.03V117.555C214.472 81.892 243.943 52.8335 280.112 52.8335H282.456C283.126 52.8335 283.796 52.8335 284.466 53.1637C318.625 55.4752 345.417 83.2128 345.417 117.555C345.417 182.276 291.834 234.779 226.194 234.779H279.777C345.417 234.779 399.001 181.946 399.001 117.224C399.001 55.8054 350.441 4.95303 289.154 0.330092Z" fill="url(#paint1_linear)"/>
<g filter="url(#filter1_i)">
<path d="M53.6247 264.04C21.5501 264.04 0 283.528 0 319.312V383.656H26.7288V355.432H80.1865V383.656H107.249V319.312C107.249 283.528 85.6993 264.04 53.6247 264.04ZM26.7288 333.592V316.792C26.7288 296.8 37.2533 287.224 53.4577 287.224C69.495 287.224 80.1865 296.8 80.1865 316.792V333.592H26.7288Z" fill="url(#paint2_linear)"/>
<path d="M157.015 305.2V293.272H132.124V383.656H158.184V340.984C158.184 323.68 167.706 315.784 182.073 315.784C184.078 315.784 185.748 315.952 187.92 316.12V291.928C174.055 291.928 163.363 296.464 157.015 305.2Z" fill="url(#paint3_linear)"/>
<path d="M246.034 385C264.912 385 279.78 376.6 286.295 362.152L266.081 351.064C261.236 359.8 254.053 363.496 245.867 363.496C232.67 363.496 222.313 354.256 222.313 338.464C222.313 322.672 232.67 313.432 245.867 313.432C254.053 313.432 261.236 317.296 266.081 325.864L286.295 314.944C279.78 300.16 264.912 291.928 246.034 291.928C216.8 291.928 195.918 311.248 195.918 338.464C195.918 365.68 216.8 385 246.034 385Z" fill="url(#paint4_linear)"/>
<path d="M355.274 291.928C343.747 291.928 333.724 295.624 326.708 302.68V259H300.647V383.656H326.708V338.968C326.708 322.336 335.729 314.608 348.258 314.608C359.785 314.608 366.467 321.328 366.467 335.944V383.656H392.527V331.912C392.527 304.36 376.49 291.928 355.274 291.928Z" fill="url(#paint5_linear)"/>
<path d="M462.401 364C450.707 364 442.354 359.464 438.512 350.56L505 337.624C504.833 308.728 483.951 291.928 458.559 291.928C430.827 291.928 410.447 311.416 410.447 338.464C410.447 365.344 430.66 385 461.733 385C477.937 385 490.466 379.96 498.819 370.384L484.953 355.264C478.772 361.144 471.923 364 462.401 364ZM458.559 311.752C469.417 311.752 477.269 317.968 479.775 327.208L436.006 335.776C436.507 320.488 445.528 311.752 458.559 311.752Z" fill="url(#paint6_linear)"/>
</g>
</g>
<defs>
<filter id="filter0_i" x="0" y="0" width="505" height="391" filterUnits="userSpaceOnUse" color-interpolation-filters="sRGB">
<feFlood flood-opacity="0" result="BackgroundImageFix"/>
<feBlend mode="normal" in="SourceGraphic" in2="BackgroundImageFix" result="shape"/>
<feColorMatrix in="SourceAlpha" type="matrix" values="0 0 0 0 0 0 0 0 0 0 0 0 0 0 0 0 0 0 127 0" result="hardAlpha"/>
<feOffset dy="10"/>
<feGaussianBlur stdDeviation="3"/>
<feComposite in2="hardAlpha" operator="arithmetic" k2="-1" k3="1"/>
<feColorMatrix type="matrix" values="0 0 0 0 0 0 0 0 0 0 0 0 0 0 0 0 0 0 0.25 0"/>
<feBlend mode="normal" in2="shape" result="effect1_innerShadow"/>
</filter>
<filter id="filter1_i" x="0" y="259" width="505" height="132" filterUnits="userSpaceOnUse" color-interpolation-filters="sRGB">
<feFlood flood-opacity="0" result="BackgroundImageFix"/>
<feBlend mode="normal" in="SourceGraphic" in2="BackgroundImageFix" result="shape"/>
<feColorMatrix in="SourceAlpha" type="matrix" values="0 0 0 0 0 0 0 0 0 0 0 0 0 0 0 0 0 0 127 0" result="hardAlpha"/>
<feOffset dy="10"/>
<feGaussianBlur stdDeviation="3"/>
<feComposite in2="hardAlpha" operator="arithmetic" k2="-1" k3="1"/>
<feColorMatrix type="matrix" values="0 0 0 0 0 0 0 0 0 0 0 0 0 0 0 0 0 0 0.25 0"/>
<feBlend mode="normal" in2="shape" result="effect1_innerShadow"/>
</filter>
<linearGradient id="paint0_linear" x1="347.754" y1="109.564" x2="107.303" y2="109.564" gradientUnits="userSpaceOnUse">
<stop stop-color="#023AFF"/>
<stop offset="1" stop-color="#56FCDE"/>
</linearGradient>
<linearGradient id="paint1_linear" x1="160.889" y1="117.408" x2="468.184" y2="117.408" gradientUnits="userSpaceOnUse">
<stop stop-color="#790FE5"/>
<stop offset="1" stop-color="#EB4B87"/>
</linearGradient>
<linearGradient id="paint2_linear" x1="0" y1="321.922" x2="651.728" y2="321.922" gradientUnits="userSpaceOnUse">
<stop stop-color="#790FE5"/>
<stop offset="1" stop-color="#EB4B87"/>
</linearGradient>
<linearGradient id="paint3_linear" x1="0" y1="321.922" x2="651.728" y2="321.922" gradientUnits="userSpaceOnUse">
<stop stop-color="#790FE5"/>
<stop offset="1" stop-color="#EB4B87"/>
</linearGradient>
<linearGradient id="paint4_linear" x1="0" y1="321.922" x2="651.728" y2="321.922" gradientUnits="userSpaceOnUse">
<stop stop-color="#790FE5"/>
<stop offset="1" stop-color="#EB4B87"/>
</linearGradient>
<linearGradient id="paint5_linear" x1="0" y1="321.922" x2="651.728" y2="321.922" gradientUnits="userSpaceOnUse">
<stop stop-color="#790FE5"/>
<stop offset="1" stop-color="#EB4B87"/>
</linearGradient>
<linearGradient id="paint6_linear" x1="0" y1="321.922" x2="651.728" y2="321.922" gradientUnits="userSpaceOnUse">
<stop stop-color="#790FE5"/>
<stop offset="1" stop-color="#EB4B87"/>
</linearGradient>
</defs>
</svg>
