<svg width="117" height="95" viewBox="0 0 117 95" fill="none" xmlns="http://www.w3.org/2000/svg">
<g filter="url(#filter0_i)">
<path d="M71.333 21.8799C73.0688 22.2748 74.2706 23.7231 74.2706 25.5663V47.5532C74.2706 61.7722 62.5202 73.3581 48.0993 73.3581H47.0311C46.764 73.3581 46.497 73.3581 46.2299 73.2265C32.7437 72.1732 22.0616 61.1139 22.0616 47.5532C22.0616 21.7482 43.4259 0.682922 69.5971 0.682922H48.2328C22.0616 0.682922 0.697266 21.7482 0.697266 47.5532C0.697266 72.0416 19.9251 92.3169 44.3606 94.1601C44.7611 94.1601 45.0282 94.1601 45.4288 94.2918C45.6958 94.2918 45.9629 94.2918 46.2299 94.2918C46.8976 94.2918 47.5652 94.2918 48.2328 94.2918C74.4041 94.2918 95.6349 73.3581 95.7684 47.5532C95.6349 33.8607 84.8192 22.6698 71.333 21.8799Z" fill="url(#paint0_linear)"/>
<path d="M73.2033 0.814548C72.9362 0.814548 72.6692 0.814548 72.4021 0.814548C72.0016 0.814548 71.7345 0.814548 71.3339 0.814548C70.6663 0.814548 69.9986 0.814548 69.4645 0.814548C43.4268 0.68289 22.0625 21.7482 22.0625 47.5531C22.0625 61.1139 32.7447 72.3048 46.3644 73.2265C44.7621 72.8315 43.4268 71.3832 43.4268 69.6717V47.5531C43.4268 33.3341 55.1772 21.7482 69.5981 21.7482H70.5328C70.7998 21.7482 71.0669 21.7482 71.3339 21.8798C84.9537 22.8014 95.6358 33.8607 95.6358 47.5531C95.6358 73.3581 74.2715 94.2917 48.1002 94.2917H69.4645C95.6358 94.2917 117 73.2265 117 47.4215C117 22.9331 97.6387 2.65776 73.2033 0.814548Z" fill="url(#paint1_linear)"/>
</g>
<defs>
<filter id="filter0_i" x="0.697266" y="0.682922" width="116.303" height="99.6088" filterUnits="userSpaceOnUse" color-interpolation-filters="sRGB">
<feFlood flood-opacity="0" result="BackgroundImageFix"/>
<feBlend mode="normal" in="SourceGraphic" in2="BackgroundImageFix" result="shape"/>
<feColorMatrix in="SourceAlpha" type="matrix" values="0 0 0 0 0 0 0 0 0 0 0 0 0 0 0 0 0 0 127 0" result="hardAlpha"/>
<feOffset dy="10"/>
<feGaussianBlur stdDeviation="3"/>
<feComposite in2="hardAlpha" operator="arithmetic" k2="-1" k3="1"/>
<feColorMatrix type="matrix" values="0 0 0 0 0 0 0 0 0 0 0 0 0 0 0 0 0 0 0.25 0"/>
<feBlend mode="normal" in2="shape" result="effect1_innerShadow"/>
</filter>
<linearGradient id="paint0_linear" x1="96.5678" y1="44.3671" x2="0.697266" y2="44.3671" gradientUnits="userSpaceOnUse">
<stop stop-color="#023AFF"/>
<stop offset="1" stop-color="#56FCDE"/>
</linearGradient>
<linearGradient id="paint1_linear" x1="22.0625" y1="47.4948" x2="144.584" y2="47.4948" gradientUnits="userSpaceOnUse">
<stop stop-color="#790FE5"/>
<stop offset="1" stop-color="#EB4B87"/>
</linearGradient>
</defs>
</svg>
