<svg width="135" height="39" viewBox="0 0 135 39" fill="none" xmlns="http://www.w3.org/2000/svg">
<path d="M63.5517 10.912C58.9437 10.912 55.8477 13.696 55.8477 18.808V28H59.6877V23.968H67.3677V28H71.2557V18.808C71.2557 13.696 68.1597 10.912 63.5517 10.912ZM59.6877 20.848V18.448C59.6877 15.592 61.1997 14.224 63.5277 14.224C65.8317 14.224 67.3677 15.592 67.3677 18.448V20.848H59.6877Z" fill="white"/>
<path d="M78.4052 16.792V15.088H74.8292V28H78.5732V21.904C78.5732 19.432 79.9412 18.304 82.0052 18.304C82.2932 18.304 82.5332 18.328 82.8452 18.352V14.896C80.8532 14.896 79.3172 15.544 78.4052 16.792Z" fill="white"/>
<path d="M91.1942 28.192C93.9062 28.192 96.0422 26.992 96.9782 24.928L94.0742 23.344C93.3782 24.592 92.3462 25.12 91.1702 25.12C89.2742 25.12 87.7862 23.8 87.7862 21.544C87.7862 19.288 89.2742 17.968 91.1702 17.968C92.3462 17.968 93.3782 18.52 94.0742 19.744L96.9782 18.184C96.0422 16.072 93.9062 14.896 91.1942 14.896C86.9942 14.896 83.9942 17.656 83.9942 21.544C83.9942 25.432 86.9942 28.192 91.1942 28.192Z" fill="white"/>
<path d="M106.888 14.896C105.232 14.896 103.792 15.424 102.784 16.432V10.192H99.0402V28H102.784V21.616C102.784 19.24 104.08 18.136 105.88 18.136C107.536 18.136 108.496 19.096 108.496 21.184V28H112.24V20.608C112.24 16.672 109.936 14.896 106.888 14.896Z" fill="white"/>
<path d="M122.279 25.192C120.599 25.192 119.399 24.544 118.847 23.272L128.399 21.424C128.375 17.296 125.375 14.896 121.727 14.896C117.743 14.896 114.815 17.68 114.815 21.544C114.815 25.384 117.719 28.192 122.183 28.192C124.511 28.192 126.311 27.472 127.511 26.104L125.519 23.944C124.631 24.784 123.647 25.192 122.279 25.192ZM121.727 17.728C123.287 17.728 124.415 18.616 124.775 19.936L118.487 21.16C118.559 18.976 119.855 17.728 121.727 17.728Z" fill="white"/>
<path d="M28.7233 10.6047C29.38 10.7541 29.8347 11.302 29.8347 11.9994V20.3176C29.8347 25.697 25.3892 30.0803 19.9334 30.0803H19.5293C19.4282 30.0803 19.3272 30.0803 19.2262 30.0305C14.124 29.632 10.0827 25.448 10.0827 20.3176C10.0827 10.5549 18.1653 2.58536 28.0666 2.58536H19.9839C10.0827 2.58536 2 10.5549 2 20.3176C2 29.5822 9.2744 37.2528 18.5189 37.9502C18.6705 37.9502 18.7715 37.9502 18.9231 38C19.0241 38 19.1251 38 19.2262 38C19.4788 38 19.7313 38 19.9839 38C29.8852 38 37.9173 30.0803 37.9678 20.3176C37.9173 15.1374 33.8255 10.9036 28.7233 10.6047Z" fill="url(#paint0_linear)"/>
<path d="M29.4309 2.63515C29.3299 2.63515 29.2288 2.63515 29.1278 2.63515C28.9762 2.63515 28.8752 2.63515 28.7237 2.63515C28.4711 2.63515 28.2185 2.63515 28.0164 2.63515C18.1657 2.58534 10.083 10.5549 10.083 20.3176C10.083 25.448 14.1243 29.6818 19.277 30.0304C18.6708 29.881 18.1657 29.3331 18.1657 28.6856V20.3176C18.1657 14.9381 22.6111 10.5549 28.0669 10.5549H28.4206C28.5216 10.5549 28.6226 10.5549 28.7237 10.6047C33.8764 10.9534 37.9177 15.1374 37.9177 20.3176C37.9177 30.0802 29.835 38 19.9338 38H28.0164C37.9177 38 46.0003 30.0304 46.0003 20.2678C46.0003 11.0032 38.6754 3.33248 29.4309 2.63515Z" fill="url(#paint1_linear)"/>
<defs>
<linearGradient id="paint0_linear" x1="38.2703" y1="19.1122" x2="2" y2="19.1122" gradientUnits="userSpaceOnUse">
<stop stop-color="#023AFF"/>
<stop offset="1" stop-color="#56FCDE"/>
</linearGradient>
<linearGradient id="paint1_linear" x1="10.083" y1="20.2955" x2="56.4361" y2="20.2955" gradientUnits="userSpaceOnUse">
<stop stop-color="#790FE5"/>
<stop offset="1" stop-color="#EB4B87"/>
</linearGradient>
</defs>
</svg>
