<svg 
 xmlns="http://www.w3.org/2000/svg"
 xmlns:xlink="http://www.w3.org/1999/xlink"
 width="1938px" height="682.5px">
<defs>
<filter filterUnits="userSpaceOnUse" id="Filter_0" x="0.5px" y="0.5px" width="1937px" height="174px"  >
                <feOffset in="SourceAlpha" dx="0" dy="2" />
                <feGaussianBlur result="blurOut" stdDeviation="3" />
                <feFlood flood-color="rgb(90, 139, 255)" result="floodOut" />
                <feComposite operator="atop" in="floodOut" in2="blurOut" />
                <feComponentTransfer><feFuncA type="linear" slope="0.29"/></feComponentTransfer>
                <feMerge>
    <feMergeNode/>
    <feMergeNode in="SourceGraphic"/>
  </feMerge>
            </filter>
<linearGradient id="PSgrad_0" x1="0%" x2="0%" y1="100%" y2="0%">
  <stop offset="0%" stop-color="rgb(96,78,255)" stop-opacity="0.30196" />
  <stop offset="100%" stop-color="rgb(96,78,255)" stop-opacity="1" />
</linearGradient>

</defs>
<g filter="url(#Filter_0)">
<path fill-rule="evenodd"  stroke-width="1px" stroke="rgb(88, 135, 245)" fill="rgb(96, 78, 255)"
 d="M1073.831,163.432 C999.646,163.433 957.889,141.919 913.905,119.264 C865.339,94.247 815.119,68.378 716.318,68.378 C616.401,68.378 554.389,90.758 488.736,114.451 C426.273,136.994 361.682,160.304 261.338,162.763 C156.460,165.320 93.338,146.248 58.861,129.783 C21.406,111.897 8.624,93.085 8.500,92.897 L9.689,92.100 C9.812,92.285 22.453,110.840 59.620,128.556 C93.950,144.918 156.805,163.903 261.303,161.327 C361.416,158.874 425.896,135.604 488.253,113.101 C554.026,89.362 616.152,66.942 716.318,66.942 C815.464,66.942 865.841,92.891 914.559,117.986 C962.774,142.821 1008.301,166.278 1097.090,161.328 C1184.183,156.468 1231.820,118.602 1277.889,81.982 C1327.005,42.940 1373.374,6.093 1463.114,7.331 C1519.613,8.131 1558.601,21.779 1603.745,37.583 C1670.193,60.844 1752.905,89.801 1927.980,86.812 L1928.005,88.249 C1919.592,88.392 1911.363,88.462 1903.369,88.462 C1744.718,88.465 1666.636,61.120 1603.275,38.940 C1558.247,23.176 1519.361,9.563 1463.095,8.767 C1461.602,8.746 1460.118,8.735 1458.650,8.735 C1372.335,8.735 1326.869,44.878 1278.776,83.108 C1232.532,119.867 1184.715,157.877 1097.168,162.762 C1089.044,163.215 1081.269,163.432 1073.831,163.432 Z"/>
</g>
<path fill-rule="evenodd"  opacity="0.6" fill="url(#PSgrad_0)"
 d="M4.218,91.450 C4.218,91.450 53.811,165.762 257.145,160.808 C460.479,155.853 515.033,66.679 713.407,66.679 C911.782,66.679 916.742,170.716 1095.279,160.808 C1273.816,150.899 1286.215,4.753 1462.272,7.230 C1603.796,9.221 1635.850,91.450 1928.453,86.496 L1928.453,681.652 L3.501,681.652 L4.218,91.450 Z"/>
</svg>
