<svg width="14" height="14" viewBox="0 0 14 14" fill="none" xmlns="http://www.w3.org/2000/svg">
<path d="M6.99941 0.291748C3.29525 0.291748 0.291664 3.29475 0.291664 7.00008C0.291664 9.96458 2.21316 12.4787 4.87958 13.3666C5.21441 13.4267 5.32058 13.2289 5.32058 13.051C5.32058 12.8912 5.32408 12.4461 5.32058 11.8861C3.45508 12.2909 3.06833 11.0023 3.06833 11.0023C2.76325 10.2271 2.32458 10.0212 2.32458 10.0212C1.715 9.60467 2.3695 9.61342 2.3695 9.61342C3.04208 9.66008 3.39733 10.3041 3.39733 10.3041C3.99583 11.3296 4.96708 11.0332 5.34916 10.8617C5.411 10.4289 5.58366 10.132 5.77558 9.96575C4.28575 9.79542 2.72008 9.22083 2.72008 6.64892C2.72008 5.91683 2.98141 5.31833 3.41075 4.84875C3.34191 4.68016 3.11091 3.99708 3.47608 3.07367C3.47608 3.07367 4.04016 2.89341 5.32058 3.762C5.86812 3.61266 6.43304 3.53656 7.00058 3.53566C7.56991 3.53858 8.14391 3.61266 8.68058 3.762C9.961 2.894 10.5233 3.07366 10.5233 3.07367C10.8891 3.99708 10.6587 4.68016 10.5898 4.84875C11.0192 5.31833 11.2799 5.91683 11.2799 6.64892C11.2799 9.22725 9.71133 9.79367 8.21683 9.95875C8.45716 10.167 8.67591 10.5695 8.67591 11.1954V13.0527C8.67591 13.2324 8.78441 13.4302 9.12508 13.3654C11.7886 12.477 13.7083 9.96342 13.7083 7.00008C13.7083 3.29475 10.7053 0.291748 6.99941 0.291748Z" fill="#604EFF"/>
</svg>
