<svg 
 xmlns="http://www.w3.org/2000/svg"
 xmlns:xlink="http://www.w3.org/1999/xlink"
 width="22px" height="18px">
<path fill-rule="evenodd"  fill="rgb(96, 78, 255)"
 d="M21.873,2.634 C21.328,3.362 20.669,3.997 19.921,4.514 L19.921,5.095 C19.933,12.211 14.179,17.990 7.067,18.002 C7.000,18.002 6.933,18.002 6.866,18.001 C4.871,18.008 2.903,17.552 1.114,16.670 C1.017,16.628 0.955,16.533 0.955,16.427 L0.955,16.311 C0.955,16.159 1.078,16.036 1.230,16.036 C3.190,15.972 5.080,15.292 6.633,14.093 C4.859,14.057 3.263,13.006 2.528,11.389 C2.469,11.250 2.535,11.089 2.674,11.030 C2.715,11.013 2.759,11.006 2.802,11.009 C3.342,11.063 3.886,11.013 4.406,10.861 C2.448,10.455 0.976,8.828 0.765,6.838 C0.754,6.686 0.866,6.554 1.017,6.542 C1.061,6.539 1.105,6.546 1.145,6.563 C1.671,6.795 2.238,6.917 2.813,6.922 C1.097,5.795 0.355,3.652 1.008,1.705 C1.114,1.408 1.440,1.253 1.736,1.359 C1.825,1.391 1.905,1.444 1.969,1.515 C4.285,3.980 7.467,5.449 10.844,5.612 C10.758,5.267 10.715,4.912 10.718,4.556 C10.761,2.013 12.856,-0.013 15.397,0.030 C16.625,0.051 17.794,0.563 18.644,1.451 C19.523,1.284 20.373,0.988 21.166,0.575 C21.224,0.538 21.298,0.538 21.356,0.575 C21.392,0.633 21.392,0.707 21.356,0.765 C20.972,1.645 20.322,2.383 19.499,2.877 C20.220,2.793 20.929,2.623 21.610,2.370 C21.667,2.331 21.742,2.331 21.800,2.370 C21.890,2.411 21.929,2.518 21.888,2.608 C21.884,2.617 21.879,2.626 21.873,2.634 Z"/>
</svg>
