<svg 
 xmlns="http://www.w3.org/2000/svg"
 xmlns:xlink="http://www.w3.org/1999/xlink"
 width="22px" height="18px">
<path fill-rule="evenodd"  fill="rgb(96, 78, 255)"
 d="M19.780,2.489 L21.442,0.892 L21.442,0.542 L15.685,0.542 L11.582,10.800 L6.915,0.542 L0.879,0.542 L0.879,0.892 L2.821,3.240 C3.010,3.413 3.108,3.668 3.084,3.923 L3.084,13.148 C3.143,13.482 3.038,13.820 2.804,14.062 L0.616,16.726 L0.616,17.071 L6.815,17.071 L6.815,16.721 L4.629,14.064 C4.392,13.823 4.281,13.486 4.328,13.151 L4.328,5.170 L9.771,17.076 L10.403,17.076 L15.083,5.170 L15.083,14.655 C15.083,14.905 15.083,14.956 14.920,15.122 L13.236,16.756 L13.236,17.106 L21.404,17.106 L21.404,16.756 L19.780,15.160 C19.639,15.051 19.566,14.870 19.596,14.693 L19.596,2.955 C19.567,2.778 19.638,2.599 19.780,2.489 L19.780,2.489 Z"/>
</svg>
