<svg 
 xmlns="http://www.w3.org/2000/svg"
 xmlns:xlink="http://www.w3.org/1999/xlink"
 width="166px" height="71px">
<defs>
<linearGradient id="PSgrad_0" x1="0%" x2="0%" y1="100%" y2="0%">
  <stop offset="0%" stop-color="rgb(255,141,107)" stop-opacity="0" />
  <stop offset="100%" stop-color="rgb(255,141,107)" stop-opacity="1" />
</linearGradient>

</defs>
<path fill-rule="evenodd"  fill="rgb(255, 255, 255)"
 d="M89.769,24.755 L89.769,43.520 L84.308,43.520 L84.308,24.755 L84.308,22.016 L84.308,19.276 L120.626,19.276 L120.626,24.755 L89.769,24.755 ZM84.308,1.196 L120.626,1.196 L120.626,6.675 L84.308,6.675 L84.308,1.196 ZM58.817,42.835 L30.418,42.835 L30.418,37.356 L58.817,37.356 C62.280,37.356 65.097,34.530 65.097,31.056 C65.097,27.582 62.280,24.755 58.817,24.755 L30.418,24.755 L30.418,19.276 L58.817,19.276 C62.280,19.276 65.097,16.450 65.097,12.976 C65.097,9.501 62.280,6.675 58.817,6.675 L30.418,6.675 L30.418,1.196 L58.817,1.196 C65.291,1.196 70.559,6.481 70.559,12.976 C70.559,16.605 68.912,19.853 66.332,22.016 C68.912,24.178 70.559,27.427 70.559,31.056 C70.559,37.551 65.291,42.835 58.817,42.835 Z"/>
<path fill-rule="evenodd"  fill="rgb(255, 255, 255)"
 d="M136.031,0.969 L140.625,0.969 L140.625,43.531 L136.031,43.531 L136.031,0.969 Z"/>
<path fill-rule="evenodd"  fill="url(#PSgrad_0)"
 d="M20.094,0.969 L26.250,0.969 L26.250,43.531 L20.094,43.531 L20.094,0.969 Z"/>
<path fill-rule="evenodd"  fill="rgb(255, 255, 255)"
 d="M164.254,70.031 L164.254,59.839 L165.604,59.839 L165.604,70.031 L164.254,70.031 ZM133.370,64.198 L138.157,64.198 L138.157,65.401 L133.370,65.401 L133.370,70.031 L132.020,70.031 L132.020,59.839 L138.901,59.839 L138.901,61.042 L133.370,61.042 L133.370,64.198 ZM99.103,59.839 L106.479,59.839 L106.479,61.042 L100.453,61.042 L100.453,64.164 L106.096,64.164 L106.096,65.359 L100.453,65.359 L100.453,68.829 L106.715,68.829 L106.715,70.031 L99.103,70.031 L99.103,59.839 ZM69.864,64.014 C70.961,64.262 71.714,64.479 72.122,64.664 C72.716,64.938 73.154,65.284 73.437,65.704 C73.720,66.123 73.861,66.606 73.861,67.153 C73.861,67.695 73.706,68.206 73.395,68.686 C73.084,69.166 72.638,69.539 72.056,69.805 C71.474,70.072 70.818,70.205 70.090,70.205 C69.167,70.205 68.394,70.070 67.770,69.802 C67.146,69.533 66.657,69.129 66.301,68.588 C65.947,68.049 65.760,67.438 65.741,66.757 L67.015,66.645 C67.075,67.155 67.215,67.573 67.436,67.901 C67.656,68.227 67.998,68.491 68.462,68.693 C68.926,68.894 69.448,68.995 70.028,68.995 C70.542,68.995 70.997,68.919 71.391,68.766 C71.785,68.613 72.079,68.403 72.271,68.137 C72.464,67.870 72.560,67.580 72.560,67.264 C72.560,66.944 72.467,66.665 72.282,66.427 C72.096,66.188 71.790,65.988 71.364,65.825 C71.090,65.719 70.484,65.553 69.548,65.328 C68.610,65.103 67.954,64.891 67.578,64.692 C67.091,64.437 66.728,64.121 66.490,63.743 C66.250,63.365 66.131,62.943 66.131,62.474 C66.131,61.960 66.277,61.479 66.569,61.032 C66.862,60.584 67.288,60.245 67.850,60.013 C68.411,59.782 69.035,59.666 69.721,59.666 C70.477,59.666 71.144,59.787 71.722,60.031 C72.299,60.274 72.744,60.632 73.054,61.105 C73.365,61.577 73.532,62.113 73.555,62.711 L72.261,62.808 C72.192,62.164 71.956,61.677 71.555,61.348 C71.154,61.019 70.561,60.854 69.777,60.854 C68.961,60.854 68.366,61.004 67.993,61.303 C67.619,61.602 67.432,61.962 67.432,62.384 C67.432,62.750 67.564,63.051 67.829,63.288 C68.089,63.524 68.767,63.766 69.864,64.014 ZM39.025,66.944 L34.759,66.944 L33.639,70.031 L32.206,70.031 L36.123,59.839 L37.577,59.839 L41.752,70.031 L40.214,70.031 L39.025,66.944 ZM37.543,63.024 C37.218,62.166 36.976,61.462 36.819,60.910 C36.689,61.564 36.506,62.213 36.269,62.857 L35.149,65.846 L38.607,65.846 L37.543,63.024 ZM8.098,67.077 C8.098,67.554 7.997,67.998 7.796,68.408 C7.593,68.818 7.344,69.134 7.047,69.357 C6.750,69.579 6.378,69.747 5.931,69.861 C5.483,69.975 4.934,70.031 4.285,70.031 L0.396,70.031 L0.396,59.839 L4.222,59.839 C5.002,59.839 5.627,59.943 6.098,60.149 C6.568,60.355 6.937,60.673 7.204,61.101 C7.471,61.530 7.604,61.978 7.604,62.446 C7.604,62.882 7.486,63.292 7.249,63.677 C7.013,64.062 6.655,64.372 6.178,64.609 C6.794,64.789 7.269,65.098 7.601,65.533 C7.932,65.969 8.098,66.483 8.098,67.077 ZM6.275,62.606 C6.275,62.268 6.194,61.970 6.032,61.713 C5.869,61.456 5.637,61.280 5.336,61.185 C5.034,61.090 4.517,61.042 3.784,61.042 L1.745,61.042 L1.745,64.122 L3.951,64.122 C4.549,64.122 4.978,64.083 5.238,64.004 C5.581,63.902 5.840,63.733 6.014,63.496 C6.188,63.260 6.275,62.963 6.275,62.606 ZM6.407,66.086 C6.212,65.805 5.942,65.609 5.597,65.495 C5.251,65.381 4.753,65.325 4.104,65.325 L1.745,65.325 L1.745,68.829 L4.285,68.829 C4.721,68.829 5.027,68.812 5.204,68.780 C5.514,68.724 5.774,68.632 5.983,68.502 C6.192,68.372 6.363,68.183 6.498,67.935 C6.632,67.687 6.700,67.401 6.700,67.077 C6.700,66.697 6.602,66.366 6.407,66.086 Z"/>
</svg>
