<svg 
 xmlns="http://www.w3.org/2000/svg"
 xmlns:xlink="http://www.w3.org/1999/xlink"
 width="186px" height="68px">
<defs>
<linearGradient id="PSgrad_0" x1="0%" x2="0%" y1="100%" y2="0%">
  <stop offset="0%" stop-color="rgb(255,141,107)" stop-opacity="0" />
  <stop offset="100%" stop-color="rgb(255,141,107)" stop-opacity="1" />
</linearGradient>

</defs>
<path fill-rule="evenodd"  fill="rgb(255, 255, 255)"
 d="M132.512,23.269 L132.512,41.193 L127.295,41.193 L127.295,23.269 L127.295,20.653 L127.295,18.036 L161.986,18.036 L161.986,23.269 L132.512,23.269 ZM127.295,0.766 L161.986,0.766 L161.986,6.000 L127.295,6.000 L127.295,0.766 ZM86.084,18.036 L88.693,18.036 L104.603,18.036 L105.646,18.036 L105.646,18.089 C111.343,18.619 115.819,23.437 115.819,29.288 C115.819,35.492 110.787,40.539 104.603,40.539 L77.477,40.539 L77.477,35.306 L104.603,35.306 C107.911,35.306 110.602,32.606 110.602,29.288 C110.602,25.969 107.911,23.269 104.603,23.269 L88.693,23.269 L86.084,23.269 C79.900,23.269 74.869,18.222 74.869,12.018 C74.869,5.814 79.900,0.766 86.084,0.766 L113.211,0.766 L113.211,6.000 L86.084,6.000 C82.776,6.000 80.085,8.699 80.085,12.018 C80.085,15.336 82.776,18.036 86.084,18.036 ZM56.089,40.539 L28.963,40.539 L28.963,35.306 L56.089,35.306 C59.397,35.306 62.088,32.606 62.088,29.288 C62.088,25.969 59.397,23.269 56.089,23.269 L28.963,23.269 L28.963,18.036 L56.089,18.036 C59.397,18.036 62.088,15.336 62.088,12.018 C62.088,8.699 59.397,6.000 56.089,6.000 L28.963,6.000 L28.963,0.766 L56.089,0.766 C62.273,0.766 67.305,5.814 67.305,12.018 C67.305,15.484 65.732,18.587 63.267,20.653 C65.732,22.718 67.305,25.821 67.305,29.288 C67.305,35.492 62.273,40.539 56.089,40.539 Z"/>
<path fill-rule="evenodd"  fill="url(#PSgrad_0)"
 d="M19.084,0.569 L24.960,0.569 L24.960,41.200 L19.084,41.200 L19.084,0.569 Z"/>
<path fill-rule="evenodd"  fill="rgb(255, 255, 255)"
 d="M183.652,67.490 L183.652,56.120 L185.158,56.120 L185.158,67.490 L183.652,67.490 ZM149.195,60.983 L154.536,60.983 L154.536,62.324 L149.195,62.324 L149.195,67.490 L147.689,67.490 L147.689,56.120 L155.367,56.120 L155.367,57.461 L149.195,57.461 L149.195,60.983 ZM110.966,56.120 L119.194,56.120 L119.194,57.461 L112.472,57.461 L112.472,60.944 L118.767,60.944 L118.767,62.278 L112.472,62.278 L112.472,66.148 L119.458,66.148 L119.458,67.490 L110.966,67.490 L110.966,56.120 ZM78.345,60.777 C79.569,61.054 80.408,61.296 80.864,61.502 C81.526,61.808 82.015,62.194 82.331,62.662 C82.646,63.130 82.804,63.669 82.804,64.279 C82.804,64.884 82.631,65.454 82.284,65.989 C81.938,66.525 81.440,66.941 80.790,67.238 C80.141,67.535 79.409,67.684 78.597,67.684 C77.567,67.684 76.704,67.534 76.008,67.234 C75.312,66.934 74.766,66.483 74.370,65.881 C73.974,65.278 73.766,64.597 73.745,63.837 L75.166,63.713 C75.233,64.282 75.390,64.748 75.636,65.113 C75.881,65.477 76.263,65.772 76.781,65.997 C77.298,66.222 77.880,66.334 78.527,66.334 C79.102,66.334 79.609,66.249 80.049,66.078 C80.488,65.908 80.816,65.674 81.031,65.377 C81.245,65.079 81.353,64.755 81.353,64.403 C81.353,64.046 81.249,63.735 81.042,63.469 C80.835,63.202 80.494,62.979 80.018,62.798 C79.712,62.679 79.037,62.494 77.992,62.243 C76.946,61.992 76.214,61.756 75.795,61.533 C75.251,61.249 74.846,60.896 74.580,60.475 C74.313,60.053 74.180,59.582 74.180,59.059 C74.180,58.485 74.343,57.949 74.669,57.450 C74.995,56.951 75.471,56.572 76.097,56.314 C76.723,56.055 77.420,55.926 78.186,55.926 C79.029,55.926 79.773,56.061 80.418,56.333 C81.062,56.604 81.557,57.004 81.904,57.531 C82.251,58.059 82.437,58.656 82.463,59.323 L81.019,59.432 C80.941,58.713 80.679,58.170 80.231,57.803 C79.784,57.436 79.122,57.252 78.248,57.252 C77.337,57.252 76.673,57.419 76.257,57.752 C75.840,58.086 75.632,58.488 75.632,58.958 C75.632,59.367 75.779,59.703 76.074,59.967 C76.364,60.230 77.121,60.501 78.345,60.777 ZM43.938,64.046 L39.180,64.046 L37.930,67.490 L36.331,67.490 L40.701,56.120 L42.324,56.120 L46.981,67.490 L45.266,67.490 L43.938,64.046 ZM42.285,59.672 C41.923,58.715 41.653,57.930 41.478,57.314 C41.333,58.043 41.128,58.767 40.864,59.486 L39.614,62.821 L43.473,62.821 L42.285,59.672 ZM9.435,64.194 C9.435,64.727 9.322,65.222 9.097,65.679 C8.872,66.137 8.594,66.490 8.263,66.738 C7.932,66.986 7.516,67.173 7.017,67.300 C6.517,67.427 5.905,67.490 5.181,67.490 L0.842,67.490 L0.842,56.120 L5.111,56.120 C5.981,56.120 6.678,56.235 7.203,56.465 C7.728,56.695 8.140,57.049 8.437,57.528 C8.735,58.006 8.884,58.506 8.884,59.028 C8.884,59.514 8.752,59.972 8.488,60.401 C8.224,60.830 7.825,61.177 7.292,61.440 C7.980,61.642 8.510,61.986 8.880,62.472 C9.250,62.958 9.435,63.532 9.435,64.194 ZM7.401,59.206 C7.401,58.829 7.310,58.497 7.129,58.210 C6.948,57.923 6.689,57.726 6.353,57.621 C6.017,57.514 5.440,57.461 4.622,57.461 L2.347,57.461 L2.347,60.897 L4.808,60.897 C5.476,60.897 5.954,60.854 6.244,60.766 C6.627,60.652 6.916,60.463 7.110,60.199 C7.304,59.936 7.401,59.605 7.401,59.206 ZM7.549,63.088 C7.331,62.776 7.030,62.556 6.644,62.429 C6.259,62.303 5.704,62.239 4.979,62.239 L2.347,62.239 L2.347,66.148 L5.181,66.148 C5.667,66.148 6.009,66.130 6.206,66.094 C6.552,66.032 6.842,65.929 7.075,65.784 C7.308,65.639 7.499,65.428 7.650,65.151 C7.799,64.875 7.875,64.556 7.875,64.194 C7.875,63.770 7.766,63.401 7.549,63.088 Z"/>
</svg>
